<?xml version="1.0" standalone="no"?>
<!DOCTYPE svg PUBLIC "-//W3C//DTD SVG 20010904//EN"
 "http://www.w3.org/TR/2001/REC-SVG-20010904/DTD/svg10.dtd">
<svg version="1.0" xmlns="http://www.w3.org/2000/svg"
 width="1108.000000pt" height="1108.000000pt" viewBox="0 0 1108.000000 1108.000000"
 preserveAspectRatio="xMidYMid meet">
<metadata>
Created by potrace 1.11, written by Peter Selinger 2001-2013
</metadata>
<g transform="translate(0.000000,1108.000000) scale(0.100000,-0.100000)"
fill="#000000" stroke="none">
<path d="M3423 8812 c-6 -4 -14 -23 -18 -42 -4 -19 -23 -100 -42 -180 -19 -80
-37 -154 -40 -165 -2 -11 -6 -24 -7 -30 -2 -5 -7 -30 -11 -53 -4 -24 -14 -46
-21 -49 -7 -3 -66 -16 -131 -29 -65 -13 -125 -26 -133 -28 -73 -19 -144 -41
-187 -56 l-52 -19 -27 32 c-14 18 -57 66 -94 107 -37 41 -109 122 -159 180
-51 58 -97 107 -102 108 -5 2 -32 -10 -59 -27 -28 -17 -52 -31 -55 -31 -3 0
-34 -18 -70 -40 -36 -22 -68 -40 -70 -40 -3 0 -22 -11 -43 -23 -20 -13 -57
-35 -82 -49 -145 -81 -171 -100 -165 -116 10 -25 102 -294 131 -382 14 -41 29
-83 34 -92 20 -36 9 -56 -62 -121 -71 -63 -194 -187 -274 -275 l-39 -43 -65
25 c-99 37 -293 107 -310 111 -8 2 -35 11 -60 20 -106 40 -93 45 -157 -61 -32
-52 -70 -114 -84 -137 -14 -23 -63 -101 -107 -174 l-81 -132 52 -50 c29 -27
63 -59 77 -71 22 -19 124 -113 262 -241 l48 -44 -35 -102 c-34 -100 -74 -253
-95 -364 -6 -31 -16 -56 -23 -56 -15 -1 -77 -12 -97 -18 -8 -2 -29 -7 -47 -10
-17 -3 -96 -19 -175 -35 -79 -17 -156 -33 -171 -35 -16 -3 -34 -7 -40 -8 -7
-1 -14 -5 -17 -9 -3 -4 -7 -148 -8 -320 -3 -296 -2 -314 15 -315 10 -1 63 -11
118 -22 55 -12 171 -35 258 -52 87 -18 164 -38 171 -45 7 -7 16 -37 20 -66 10
-78 51 -239 90 -351 l33 -98 -37 -32 c-40 -35 -36 -32 -230 -196 -74 -62 -141
-119 -149 -126 -11 -11 -6 -26 30 -91 23 -44 60 -113 83 -154 22 -41 50 -93
62 -115 12 -22 42 -77 66 -122 23 -46 48 -83 54 -83 6 0 131 38 279 85 147 47
269 84 270 83 1 -2 30 -36 64 -75 34 -40 56 -73 49 -73 -17 0 -121 -55 -173
-91 -260 -179 -408 -586 -326 -901 51 -196 173 -348 356 -440 47 -24 178 -66
247 -79 48 -9 1039 -11 4063 -10 2200 1 4014 4 4030 7 182 32 311 96 423 210
73 75 111 131 151 228 41 99 43 108 48 312 5 163 3 189 -16 264 -47 180 -122
292 -289 432 -27 22 -31 30 -23 50 5 12 12 48 17 78 4 30 8 57 9 60 1 4 10 68
21 155 12 95 3 291 -21 426 -12 66 -60 212 -95 286 -35 75 -115 208 -143 239
-7 7 -23 27 -37 45 -75 100 -268 264 -415 351 -158 94 -362 182 -532 228 l-81
23 -17 61 c-50 178 -91 283 -173 445 -160 318 -428 610 -760 829 -51 34 -95
62 -98 62 -2 0 -22 11 -44 25 -179 113 -435 206 -673 245 -34 5 -71 12 -82 14
-25 5 -106 16 -166 22 -24 3 -140 7 -258 9 l-214 4 -36 63 c-20 35 -42 75 -50
91 -8 15 -19 27 -25 27 -6 0 -112 -32 -236 -71 -124 -39 -242 -75 -263 -81
l-37 -10 -143 143 c-79 79 -166 162 -195 184 -29 21 -52 46 -52 53 0 8 18 65
39 126 96 270 131 372 131 383 0 10 -62 54 -125 88 -12 7 -107 64 -211 128
-105 64 -195 117 -200 117 -5 0 -18 -10 -28 -22 -29 -35 -169 -192 -180 -203
-6 -6 -47 -51 -91 -100 -89 -100 -95 -106 -107 -99 -16 10 -163 43 -218 49
-30 3 -66 8 -80 10 -14 2 -59 7 -100 10 -88 8 -110 12 -119 21 -3 3 -13 42
-22 87 -9 45 -31 154 -49 243 -17 88 -35 166 -39 173 -5 8 -70 13 -217 17
-115 2 -252 6 -305 8 -52 3 -100 1 -106 -2z m489 -1706 c220 -19 435 -93 638
-219 112 -70 249 -190 341 -298 l39 -46 -53 -74 c-57 -80 -112 -169 -146 -237
-17 -33 -26 -42 -39 -37 -52 21 -212 46 -292 47 -168 1 -296 -26 -466 -98
-204 -86 -365 -198 -466 -323 -177 -220 -274 -447 -304 -712 -9 -75 -9 -238 0
-292 3 -20 9 -53 12 -72 3 -19 2 -36 -3 -36 -4 -1 -17 -3 -28 -4 -128 -15
-214 -35 -320 -72 -38 -14 -76 -30 -84 -37 -32 -25 -215 214 -305 398 -55 111
-91 217 -117 342 -26 126 -29 156 -29 311 0 205 25 342 96 526 66 172 144 297
294 471 79 92 272 238 399 303 73 38 224 99 261 107 14 3 52 12 85 20 160 39
301 48 487 32z"/>
</g>
</svg>
